<svg width="24" height="24" viewBox="0 0 24 24" fill="none" xmlns="http://www.w3.org/2000/svg">
<rect x="0.666656" y="0.555008" width="23.3333" height="23.3333" rx="7.77778" fill="#167FFC"/>
<path d="M6.12442 10.0954C6.57214 8.37852 7.94009 7.06503 9.65786 6.70259L9.9861 6.63334C11.5343 6.30669 13.1324 6.30669 14.6805 6.63334L15.0088 6.70259C16.7266 7.06503 18.0945 8.37852 18.5422 10.0954C18.9057 11.4891 18.9057 12.9543 18.5422 14.348C18.0945 16.0648 16.7266 17.3783 15.0088 17.7408L14.6805 17.81C13.1324 18.1367 11.5343 18.1367 9.9861 17.81L9.65786 17.7408C7.94009 17.3783 6.57214 16.0648 6.12442 14.348C5.76098 12.9543 5.76098 11.4891 6.12442 10.0954Z" stroke="#1B1D21" stroke-width="1.45833"/>
<path d="M8.44443 12.2217H9.74072L11.037 14.1661L13.6296 10.2772L14.9259 12.2217H16.2222" stroke="#1B1D21" stroke-width="0.972222" stroke-linecap="round" stroke-linejoin="round"/>
</svg>
