<svg width="25" height="24" viewBox="0 0 25 24" fill="none" xmlns="http://www.w3.org/2000/svg">
<rect x="0.833344" y="0.555008" width="23.3333" height="23.3333" rx="7.77778" fill="#53D86A"/>
<path d="M6.59238 10.1792C7.02836 8.42343 8.42056 7.06589 10.1865 6.67459L10.4806 6.6094C11.8108 6.31467 13.1892 6.31467 14.5194 6.6094L14.8135 6.67459C16.5794 7.06589 17.9716 8.42343 18.4076 10.1792C18.7407 11.5205 18.7407 12.9229 18.4076 14.2642C17.9716 16.0199 16.5794 17.3775 14.8135 17.7688L14.5193 17.834C13.1892 18.1287 11.8108 18.1287 10.4806 17.834L10.1865 17.7688C8.42056 17.3775 7.02836 16.0199 6.59238 14.2642C6.25933 12.9229 6.25933 11.5205 6.59238 10.1792Z" stroke="#1B1D21" stroke-width="1.45833"/>
<path fill-rule="evenodd" clip-rule="evenodd" d="M12.5001 8.98094C12.748 8.98094 12.9489 9.17019 12.9489 9.40365V9.74947H12.9986C13.833 9.74947 14.4444 10.4329 14.4444 11.1969C14.4444 11.4304 14.2435 11.6196 13.9957 11.6196C13.7479 11.6196 13.547 11.4304 13.547 11.1969C13.547 10.829 13.2655 10.5949 12.9986 10.5949H12.9489V11.9256L13.5547 12.1332C14.1053 12.3218 14.4444 12.8347 14.4444 13.3779C14.4444 14.0693 13.8903 14.6938 13.1265 14.6938H12.9489V15.0397C12.9489 15.2732 12.748 15.4624 12.5001 15.4624C12.2523 15.4624 12.0514 15.2732 12.0514 15.0397V14.6938H12.0014C11.1669 14.6938 10.5555 14.0104 10.5555 13.2464C10.5555 13.0129 10.7564 12.8237 11.0043 12.8237C11.2521 12.8237 11.453 13.0129 11.453 13.2464C11.453 13.6143 11.7345 13.8484 12.0014 13.8484H12.0514V12.5178L11.4453 12.3101C10.8947 12.1215 10.5555 11.6086 10.5555 11.0655C10.5555 10.374 11.1097 9.74947 11.8735 9.74947H12.0514V9.40365C12.0514 9.17019 12.2523 8.98094 12.5001 8.98094ZM12.0514 10.5949H11.8735C11.6772 10.5949 11.453 10.7702 11.453 11.0655C11.453 11.2912 11.5926 11.4611 11.752 11.5156L12.0514 11.6182V10.5949ZM12.9489 12.8252V13.8484H13.1265C13.3228 13.8484 13.547 13.6731 13.547 13.3779C13.547 13.1521 13.4073 12.9823 13.248 12.9277L12.9489 12.8252Z" fill="#1B1D21"/>
</svg>
