<svg width="48" height="36" viewBox="0 0 48 36" fill="none" xmlns="http://www.w3.org/2000/svg">
<path d="M31.0834 23.5738H33.125M19.9028 18.2778L18.5417 18.3135M19.9028 18.2778C19.9028 19.3517 20.7734 20.2222 21.8472 20.2222C22.9211 20.2222 23.7917 19.3517 23.7917 18.2778C23.7917 17.2039 22.9211 16.3333 21.8472 16.3333C20.7734 16.3333 19.9028 17.2039 19.9028 18.2778ZM24.3499 18.3135H33.125M26.4823 13.0531L18.5417 13.0531M33.125 13.0531H31.0834M18.5417 23.5738H26.4823M30.5972 23.625C30.5972 24.6989 29.7267 25.5694 28.6528 25.5694C27.5789 25.5694 26.7084 24.6989 26.7084 23.625C26.7084 22.5511 27.5789 21.6806 28.6528 21.6806C29.7267 21.6806 30.5972 22.5511 30.5972 23.625ZM30.5972 12.9306C30.5972 14.0044 29.7267 14.875 28.6528 14.875C27.5789 14.875 26.7084 14.0044 26.7084 12.9306C26.7084 11.8567 27.5789 10.9861 28.6528 10.9861C29.7267 10.9861 30.5972 11.8567 30.5972 12.9306Z" stroke="white" stroke-width="1.45833" stroke-linecap="round"/>
</svg>
