<svg width="24" height="24" viewBox="0 0 24 24" fill="none" xmlns="http://www.w3.org/2000/svg">
<rect x="0.444427" y="0.555008" width="23.3333" height="23.3333" rx="7.77778" fill="#FE9526"/>
<path fill-rule="evenodd" clip-rule="evenodd" d="M18.2296 13.5143C16.5049 13.5143 16.5049 10.8475 18.2296 10.8475C18.2296 7.75771 18.2296 6.65491 12.1402 6.65491C6.05087 6.65491 6.05087 7.75771 6.05087 10.8475C7.77559 10.8475 7.77559 13.5143 6.05087 13.5143C6.05087 16.6047 6.05087 17.7075 12.1402 17.7075C18.2296 17.7075 18.2296 16.6047 18.2296 13.5143Z" stroke="#1B1D21" stroke-width="1.45833" stroke-linecap="round" stroke-linejoin="round"/>
<path fill-rule="evenodd" clip-rule="evenodd" d="M12.1402 10.3885C11.6976 10.3885 11.6554 11.0947 11.3923 11.3446C11.1285 11.5939 10.3099 11.309 10.1958 11.7517C10.0824 12.195 10.8193 12.3454 10.9107 12.7255C11.0014 13.1056 10.5516 13.6398 10.936 13.9063C11.321 14.1716 11.7351 13.5704 12.1402 13.5704C12.5453 13.5704 12.9595 14.1716 13.3445 13.9063C13.7295 13.6398 13.279 13.1056 13.3698 12.7255C13.4612 12.3454 14.1981 12.195 14.0847 11.7517C13.9706 11.309 13.152 11.5939 12.8882 11.3446C12.6251 11.0947 12.5829 10.3885 12.1402 10.3885Z" stroke="#1B1D21" stroke-width="0.972222" stroke-linecap="round" stroke-linejoin="round"/>
</svg>
