<svg width="39" height="40" viewBox="0 0 39 40" fill="none" xmlns="http://www.w3.org/2000/svg">
<circle cx="19.5557" cy="19.8885" r="19.4444" fill="#F9F9F9"/>
<path d="M15.8137 18.2844L18.3128 20.0699C19.0563 20.6011 20.0551 20.6011 20.7985 20.0699L23.2976 18.2844M10.6943 22.9522C10.1947 20.9403 10.1947 18.8367 10.6943 16.8247C11.3482 14.1911 13.4365 12.1548 16.0854 11.5678L16.5267 11.47C18.5218 11.0279 20.5896 11.0279 22.5847 11.47L23.026 11.5678C25.6748 12.1548 27.7631 14.1911 28.4171 16.8247C28.9167 18.8367 28.9167 20.9403 28.4171 22.9522C27.7631 25.5858 25.6748 27.6222 23.026 28.2091L22.5847 28.3069C20.5896 28.749 18.5218 28.749 16.5267 28.3069L16.0854 28.2091C13.4365 27.6222 11.3482 25.5858 10.6943 22.9522Z" stroke="#1B1D21" stroke-width="1.45833" stroke-linecap="round"/>
</svg>
