<svg width="40" height="40" viewBox="0 0 40 40" fill="none" xmlns="http://www.w3.org/2000/svg">
<circle cx="20.1113" cy="19.8885" r="19.4444" fill="#F9F9F9"/>
<path d="M13.923 15.9409L13.219 15.751L13.219 15.751L13.923 15.9409ZM18.1954 11.4514L18.4211 12.1447L18.4211 12.1447L18.1954 11.4514ZM13.8698 16.1382L14.5738 16.3281L14.5738 16.3281L13.8698 16.1382ZM13.6697 20.365L14.3885 20.2425L14.3885 20.2425L13.6697 20.365ZM13.693 20.5014L12.9742 20.6239L12.9742 20.6239L13.693 20.5014ZM13.7358 20.7202L14.0266 21.3889C14.3466 21.2497 14.5232 20.9033 14.4477 20.5626L13.7358 20.7202ZM14.1945 25.1536L14.3407 24.4392L14.3407 24.4392L14.1945 25.1536ZM14.5597 25.2283L14.7059 24.5139L14.7059 24.5139L14.5597 25.2283ZM25.6628 25.2283L25.8089 25.9427L25.8089 25.9427L25.6628 25.2283ZM26.028 25.1536L25.8818 24.4392L25.8818 24.4392L26.028 25.1536ZM26.4854 20.7197L25.7744 20.5582C25.6967 20.9001 25.8734 21.2489 26.1951 21.3885L26.4854 20.7197ZM26.534 20.4752L27.2528 20.5977L27.2528 20.5977L26.534 20.4752ZM26.5586 20.3306L25.8398 20.2081L25.8398 20.2081L26.5586 20.3306ZM26.3782 16.1674L25.6727 16.3517L25.6727 16.3517L26.3782 16.1674ZM26.307 15.895L27.0125 15.7107L27.0125 15.7107L26.307 15.895ZM22.1572 11.4578L22.3867 10.7657L22.3867 10.7657L22.1572 11.4578ZM22.8386 26.3521L23.5511 26.5072L22.8386 26.3521ZM22.7681 26.6757L23.4806 26.8308L23.4806 26.8308L22.7681 26.6757ZM17.4544 26.6757L18.1668 26.5205L18.1668 26.5205L17.4544 26.6757ZM17.3839 26.3521L16.6714 26.5072L16.6714 26.5072L17.3839 26.3521ZM20.9716 28.5139L20.802 27.8047L20.802 27.8047L20.9716 28.5139ZM20.7812 28.5594L20.9508 29.2686L20.9508 29.2686L20.7812 28.5594ZM19.4413 28.5594L19.611 27.8503L19.611 27.8503L19.4413 28.5594ZM19.2508 28.5139L19.0812 29.2231L19.0812 29.2231L19.2508 28.5139ZM17.3725 25.6547L17.4446 24.9291L17.3725 25.6547ZM14.627 16.1308C15.134 14.2513 16.5745 12.746 18.4211 12.1447L17.9696 10.758C15.6581 11.5106 13.8553 13.3922 13.219 15.751L14.627 16.1308ZM14.5738 16.3281L14.627 16.1308L13.219 15.751L13.1658 15.9483L14.5738 16.3281ZM14.3885 20.2425C14.1664 18.9396 14.2297 17.6038 14.5738 16.3281L13.1658 15.9483C12.7667 17.4277 12.6934 18.9767 12.9509 20.4875L14.3885 20.2425ZM14.4118 20.3789L14.3885 20.2425L12.9509 20.4875L12.9742 20.6239L14.4118 20.3789ZM14.4477 20.5626C14.4343 20.502 14.4223 20.4407 14.4118 20.3789L12.9742 20.6239C12.9887 20.7093 13.0053 20.7939 13.0239 20.8778L14.4477 20.5626ZM13.0626 22.8648C13.0626 22.2033 13.4595 21.6355 14.0266 21.3889L13.445 20.0515C12.3619 20.5225 11.6043 21.605 11.6043 22.8648H13.0626ZM14.3407 24.4392C13.5992 24.2875 13.0626 23.631 13.0626 22.8648H11.6043C11.6043 24.3192 12.6238 25.5764 14.0483 25.8679L14.3407 24.4392ZM14.7059 24.5139L14.3407 24.4392L14.0483 25.8679L14.4136 25.9427L14.7059 24.5139ZM25.8818 24.4392L25.5166 24.5139L25.8089 25.9427L26.1742 25.8679L25.8818 24.4392ZM27.1599 22.8648C27.1599 23.631 26.6233 24.2875 25.8818 24.4392L26.1742 25.8679C27.5987 25.5764 28.6182 24.3192 28.6182 22.8648H27.1599ZM26.1951 21.3885C26.7626 21.6349 27.1599 22.2029 27.1599 22.8648H28.6182C28.6182 21.6044 27.8598 20.5214 26.7758 20.0508L26.1951 21.3885ZM25.8152 20.3526C25.8034 20.4219 25.7898 20.4904 25.7744 20.5582L27.1965 20.8811C27.2177 20.7876 27.2365 20.6931 27.2528 20.5977L25.8152 20.3526ZM25.8398 20.2081L25.8152 20.3526L27.2528 20.5977L27.2774 20.4531L25.8398 20.2081ZM25.6727 16.3517C26.0015 17.6105 26.0585 18.9253 25.8398 20.2081L27.2774 20.4531C27.5309 18.9663 27.4648 17.4423 27.0837 15.9832L25.6727 16.3517ZM25.6015 16.0792L25.6727 16.3517L27.0837 15.9832L27.0125 15.7107L25.6015 16.0792ZM21.9276 12.1499C23.7342 12.7492 25.1178 14.2274 25.6015 16.0792L27.0125 15.7107C26.4046 13.3831 24.6644 11.5213 22.3867 10.7657L21.9276 12.1499ZM18.4211 12.1447C19.5584 11.7744 20.7956 11.7744 21.9276 12.1499L22.3867 10.7657C20.956 10.2911 19.3996 10.2924 17.9696 10.758L18.4211 12.1447ZM22.1261 26.1969L22.0557 26.5205L23.4806 26.8308L23.5511 26.5072L22.1261 26.1969ZM18.1668 26.5205L18.0964 26.1969L16.6714 26.5072L16.7419 26.8308L18.1668 26.5205ZM20.802 27.8047L20.6115 27.8503L20.9508 29.2686L21.1413 29.2231L20.802 27.8047ZM19.611 27.8503L19.4205 27.8047L19.0812 29.2231L19.2717 29.2686L19.611 27.8503ZM20.6115 27.8503C20.2826 27.929 19.9399 27.929 19.611 27.8503L19.2717 29.2686C19.8237 29.4006 20.3988 29.4006 20.9508 29.2686L20.6115 27.8503ZM16.7419 26.8308C16.9989 28.0114 17.907 28.9422 19.0812 29.2231L19.4205 27.8047C18.7937 27.6548 18.3054 27.1568 18.1668 26.5205L16.7419 26.8308ZM22.0557 26.5205C21.9171 27.1568 21.4288 27.6548 20.802 27.8047L21.1413 29.2231C22.3155 28.9422 23.2235 28.0114 23.4806 26.8308L22.0557 26.5205ZM23.5511 26.5072C23.6225 26.1791 23.6263 25.8446 23.5672 25.523L22.1329 25.7865C22.1575 25.9207 22.1559 26.06 22.1261 26.1969L23.5511 26.5072ZM25.5166 24.5139C24.6096 24.6995 23.6955 24.8379 22.7779 24.9292L22.9221 26.3803C23.8894 26.2842 24.8529 26.1383 25.8089 25.9427L25.5166 24.5139ZM22.7779 24.9292C21.0045 25.1054 19.218 25.1054 17.4446 24.9291L17.3003 26.3803C19.1697 26.5661 21.0528 26.5661 22.9221 26.3803L22.7779 24.9292ZM17.4446 24.9291C16.527 24.8379 15.6129 24.6995 14.7059 24.5139L14.4136 25.9427C15.3696 26.1383 16.3331 26.2842 17.3003 26.3803L17.4446 24.9291ZM18.0964 26.1969C18.0665 26.06 18.065 25.9207 18.0896 25.7865L16.6553 25.523C16.5962 25.8446 16.6 26.1791 16.6714 26.5072L18.0964 26.1969Z" fill="#1B1D21"/>
</svg>
