<svg width="20" height="20" viewBox="0 0 20 20" fill="none" xmlns="http://www.w3.org/2000/svg">
<path d="M15.0834 15.5738H17.125M3.9028 10.2778L2.54169 10.3135M3.9028 10.2778C3.9028 11.3517 4.77335 12.2222 5.84724 12.2222C6.92113 12.2222 7.79169 11.3517 7.79169 10.2778C7.79169 9.20389 6.92113 8.33334 5.84724 8.33334C4.77335 8.33334 3.9028 9.20389 3.9028 10.2778ZM8.34989 10.3135H17.125M10.4823 5.05309L2.54169 5.05309M17.125 5.05309H15.0834M2.54169 15.5738H10.4823M14.5972 15.625C14.5972 16.6989 13.7267 17.5694 12.6528 17.5694C11.5789 17.5694 10.7084 16.6989 10.7084 15.625C10.7084 14.5511 11.5789 13.6806 12.6528 13.6806C13.7267 13.6806 14.5972 14.5511 14.5972 15.625ZM14.5972 4.93056C14.5972 6.00445 13.7267 6.875 12.6528 6.875C11.5789 6.875 10.7084 6.00445 10.7084 4.93056C10.7084 3.85667 11.5789 2.98611 12.6528 2.98611C13.7267 2.98611 14.5972 3.85667 14.5972 4.93056Z" stroke="white" stroke-width="1.45833" stroke-linecap="round"/>
</svg>
